<?xml version="1.0" encoding="utf-8"?>
<!-- Generator: Adobe Illustrator 16.0.0, SVG Export Plug-In . SVG Version: 6.00 Build 0)  -->
<!DOCTYPE svg PUBLIC "-//W3C//DTD SVG 1.1//EN" "http://www.w3.org/Graphics/SVG/1.1/DTD/svg11.dtd">
<svg version="1.1" id="Layer_1" xmlns="http://www.w3.org/2000/svg" xmlns:xlink="http://www.w3.org/1999/xlink" x="0px" y="0px"
	 width="1277.257px" height="585.722px" viewBox="0 0 1277.257 585.722" enable-background="new 0 0 1277.257 585.722"
	 xml:space="preserve">
<g>
	<path fill-rule="evenodd" clip-rule="evenodd" fill="#FFFFFF" d="M1135.512,505.599c0,0,29.907-9.699,41.105-19.922
		c46.082-39.765-1.48-82.358-4.861-86.401C1066.701,296.43,980.893,284.157,952.249,273.293
		c-152.878-47.516-310.894-68.88-317.152-69.685c-19.519-1.854-21.991,0.375-28.676,5.432c-6.686,5.057-17.596,13.695-21.498,16.673
		s-15.365,8.461-24.741,10.936c-9.377,2.476-163.177-2.852-167.865-3.669c-4.687-0.818-11.091-0.107-16.94-5.884
		c9.252,10.858,17.847,9.797,22.916,10.535c7.613,1.109,150.468,7.58,166.955,5.982c15.963-0.998,20.327-7.785,26.646-10.243
		c10.665-7.835,25.296-12.104,25.296-12.104s7.34-2.439,14.554-1.963c7.214,0.476,244.34,42.511,319.115,67.232
		c26.582,8.955,126.571,35.002,216.277,120.7c37.993,38.729,11.914,65.428,4.742,73.572
		C1164.705,488.951,1135.512,505.599,1135.512,505.599"/>
	<path fill-rule="evenodd" clip-rule="evenodd" fill="#FFFFFF" d="M1223.572,486.157c1.952-1.109,20.853-10.991,33.697-20.857
		c46.08-39.763-1.48-82.357-4.863-86.401c-105.055-102.846-190.863-115.119-219.507-125.982
		c-153.987-45.861-310.894-68.879-317.151-69.684c-9.364-0.977-21.461,1.266-33.67,2.396c-14.092,1.886-34.547,6.375-34.547,6.375
		s39.045-4.463,48.944-3.734c8.749-2.469,178.097,26.124,336.406,70.667c29.233,9.38,108.925,23.489,216.026,123.994
		c39.562,36.426,17.27,69.146,10.729,75.432C1249.105,470.583,1221.621,487.265,1223.572,486.157"/>
	<path fill-rule="evenodd" clip-rule="evenodd" fill="#FFFFFF" d="M962.529,509.376c34.666-0.361,109.168-21.544,128.061-32.28
		c39.481-19.358,15.437-55.777,2.088-66.14c-123.688-91.205-460.51-151.442-464.206-151.46c-27.126-4.85-41.433-2.137-45.497,0.722
		c-23.77,15.382-44.697,10.873-44.697,10.873l-166.771-20.915l165.03,25.615c0.038-0.619,28.526,3.938,48.765-6.868
		c11.197-4.071,13.506-4.094,41.323-0.458c11.763,0.72,311.877,48.693,461.645,148.9c14.809,11.604,32.713,40.362-0.998,57.077
		C1077.094,477.523,1052.618,493.914,962.529,509.376"/>
	<path fill-rule="evenodd" clip-rule="evenodd" fill="#FFFFFF" d="M590.788,212.858c-1.516,1.477-2.652,3.129-3.685,4.185
		c-167.863-13.59-196.756,5.648-201.596,6.59c-5.225,0.573-5.881,0.137-8.004,0.23C377.504,223.864,421.341,199.482,590.788,212.858
		"/>
	<path fill-rule="evenodd" clip-rule="evenodd" fill="#FFFFFF" d="M564.189,207.565c0,0-56.071-174.519-59.644-181.979
		c-10.9-21.016-22.737-20.68-22.737-20.68s-44.604-5.08-49.474-4.821c-23.193-1.531-30.497,18.267-30.497,18.267
		s-48.56,220.613-49.12,229.218c1.163,26.538,9.574,78.371,11.743,79.596c2.17,1.225-7.439-60.038-2.983-90.625
		c-0.974,6.945,44.967-207.348,48.471-213.346c3.531-6.045,5.444-14.525,22.419-13.572c5.316,0.841,42.03,0.349,48.282,2.183
		c11.286,1.075,18.18,11.057,19.912,15.932c1.733,4.875,60.066,179.12,60.066,179.12L564.189,207.565z"/>
	<path fill-rule="evenodd" clip-rule="evenodd" fill="#FFFFFF" d="M396.756,26.446c0,0-4.834,13.142-5.888,20.789
		c-7.352,6.952-112.295,159.641-114.347,164.515s-12.457,39.435-12.457,39.435s4.894-27.074,9.465-41.129
		C279.123,198.187,396.756,26.446,396.756,26.446"/>
	<path fill-rule="evenodd" clip-rule="evenodd" fill="#FFFFFF" d="M501.343,41.976c0.586,2.671-4.319-8.628-3.164-10.782
		c1.154-2.154-127.006,174.954-127.006,174.954S500.757,39.305,501.343,41.976"/>
	<path fill-rule="evenodd" clip-rule="evenodd" fill="#FFFFFF" d="M355.371,403.776l-5.241-6.096c0,0-148.715-19.818-148.476-21.198
		s30.647-13.111,30.972-14.389c0.324-1.278-62.189,2.309-62.189,2.309c0.059-0.41-0.832,2.812-0.531,3.975
		c4.064-0.552,40.702-1.699,41.473-1.138c0.771,0.562-16.654,8.563-16.654,8.563s-13.205,1.293-28.153,1.032
		c-0.952,1.709-1.974,3.385-1.239,3.597c0,0,22.04,0.047,31.423,1.271C206.108,382.923,355.283,403.332,355.371,403.776"/>
	<path fill-rule="evenodd" clip-rule="evenodd" fill="#FFFFFF" d="M317.362,313.046c-0.762-1.105-1.927-2.255-3.517-3.038
		c-1.489-0.733-132.205-17.457-137.465-17.786c0.387,1.515,0.668,3.812,0.555,3.814
		C176.851,296.038,318.124,314.151,317.362,313.046"/>
	<path fill-rule="evenodd" clip-rule="evenodd" fill="#FFFFFF" d="M239.652,287.429c0.364,0.657,0.196,2.497,0.196,2.497
		l-63.177-1.12c0,0-1.26-1.541-0.82-2.217C176.261,285.958,239.409,286.99,239.652,287.429"/>
	<path fill-rule="evenodd" clip-rule="evenodd" fill="#FFFFFF" d="M829.633,394.176c5.398,0.899,2.078,3.203,0.19,4.581
		c-1.888,1.379-79.026-5.251-79.026-5.251l-1.627-4.672C749.17,388.834,824.234,393.276,829.633,394.176"/>
	<path fill-rule="evenodd" clip-rule="evenodd" fill="#FFFFFF" d="M844.289,477.832c4.149,0.06,11.151,0.182,1.775,6.125
		c-3.708,1.256-97.742,0.935-99.662,1.615c-1.919,0.683,0.701-1.676,0.482-3.816C750.315,481.967,840.139,477.771,844.289,477.832"
		/>
	<path fill-rule="evenodd" clip-rule="evenodd" fill="#FFFFFF" d="M1069.974,259.601c-29.421-12.875-69.944-23.608-102.985-29.141
		C980.464,222.444,1045.189,228.146,1069.974,259.601"/>
	<path fill-rule="evenodd" clip-rule="evenodd" fill="#FFFFFF" d="M612.578,271.234c-80.371-6.279-132.885,34.659-158.892,89.966
		c-4.562,9.701-8.14,20.523-11.183,32.236c-0.818,5.318-1.636,10.639-2.455,15.956c-1.129,5.222-2.463,19.802-1.054,24.223
		c0.582-13.423,1.063-27.203,4.391-38.92c13.881-48.883,45.223-88.212,87.868-103.848c11.21-4.11,22.903-7.275,36.178-9.249
		c60.595-9.014,112.491,30.791,133.257,64.001c9.113,14.575,16.409,30.79,20.914,49.421c1.97,8.143,2.665,16.749,3.66,25.724
		c2.386,21.517-3.092,46.079-9.249,62.42c-16.866,44.766-47.092,75.215-90.131,90.238c-18.214,6.356-45.736,11.402-71.026,5.114
		c-10.025-2.491-19.566-4.83-28.062-8.753c-4.195-2.109-8.391-4.22-12.585-6.329c0.069,0.165,0.14,0.329,0.209,0.494
		c7.9,3.105,15.159,8.374,23.554,11.594c11.479,4.402,23.601,6.352,37.404,9.346c5.752,0.285,11.507,0.569,17.26,0.854
		c4.735-0.1,9.472-0.201,14.208-0.301c14.073-1.817,26.659-4.495,38.303-8.634c44.618-15.859,76.574-47.778,94.236-94.305
		c7.121-18.758,12.452-48.805,8.929-72.541c-1.925-12.967-4.332-24.966-8.292-36.117c-14.489-40.811-43.401-71.875-83.245-90.409
		c-8.771-4.08-18.549-6.768-28.736-9.517C622.887,273.01,617.731,272.123,612.578,271.234"/>
	<path fill-rule="evenodd" clip-rule="evenodd" fill="#FFFFFF" d="M589.204,325.063c-54.625-4.349-88.275,23.734-105.854,61.344
		c-6.843,14.643-13.046,39.017-9.814,59.98c1.515,9.833,3.378,18.908,6.441,27.342c9.732,26.786,29.074,47.527,55.368,59.784
		c43.981,20.501,93.964-0.22,114.445-26.171c0.006-0.08,0.011-0.159,0.016-0.239c-3.901,0.992-7.002,6.95-10.204,9.213
		c-8.045,5.687-16.146,11.807-25.988,15.426c-41.7,15.338-85.065-2.627-104.603-30.439c-7.886-11.228-14.917-23.68-18.724-38.462
		c-17.891-69.479,27.707-125.637,81.652-134.783c9.16-1.554,22.091-1.056,31.407,1.51c4.011,1.216,8.022,2.433,12.034,3.649
		c0.015-0.24,0.029-0.479,0.045-0.719c-5.019-1.761-10.038-3.522-15.057-5.283C596.649,326.497,592.927,325.78,589.204,325.063"/>
	<path fill-rule="evenodd" clip-rule="evenodd" fill="#FFFFFF" d="M44.738,205.607c-15.292-0.46-28.488,13.531-36.595,25.2
		c-3.016,4.586-6.919,10.851-6.227,11.566c3.796-7.26,8.099-13.756,12.653-17.676c4.125-3.716,8.455-6.726,13.408-8.896
		c22.611-9.906,43.106,18.245,51.718,42.832c3.78,10.791,6.913,22.934,9.053,37.078c0.936,6.18,1.402,12.781,1.99,19.651
		c1.41,16.47-0.069,35.672-2,48.57c-5.29,35.332-15.952,60.28-31.808,73.962c-6.71,5.791-16.958,11.024-26.635,7.411
		c-3.836-1.433-7.484-2.769-10.777-5.377c-1.632-1.422-3.262-2.844-4.892-4.266c0.03,0.124,0.061,0.247,0.09,0.371
		c3.051,2.008,5.909,5.715,9.148,7.787c4.428,2.834,9.041,3.744,14.312,5.379c2.174-0.062,4.348-0.123,6.521-0.185
		c1.782-0.309,3.564-0.617,5.345-0.926c5.259-2.089,9.936-4.767,14.224-8.525c16.431-14.404,29.466-40.459,35.013-77.188
		c2.237-14.807,3.96-38.203,2.069-56.329c-1.033-9.902-2.516-19.052-4.271-27.456c-6.429-30.753-19.953-53.409-35.402-65.75
		c-3.401-2.718-7.147-4.312-11.051-5.934C48.664,206.473,46.7,206.04,44.738,205.607"/>
	<path fill-rule="evenodd" clip-rule="evenodd" fill="#FFFFFF" d="M88.589,206.333c39.39-1.295,62.521,32.127,73.764,75.105
		c4.376,16.731,7.935,44.247,4.844,67.358c-1.449,10.84-3.121,20.814-5.631,29.997c-7.973,29.165-22.625,50.983-41.958,62.912
		c-3.568,1.837-6.111,3.039-7.808,3.691c-4.057,1.323-6.967,2.117-8.922,2.458c18.451-11.79,24.483-14.747,38.453-40.169
		c6.076-11.978,10.887-25.418,14.162-41.615c15.401-76.127-16.213-141.613-54.615-155.287c-6.521-2.322-19.435-2.325-20.387-2.782
		C79.539,207.546,85.891,206.89,88.589,206.333"/>
	<path fill-rule="evenodd" clip-rule="evenodd" fill="#FFFFFF" d="M36.014,255.75C18.359,254.669,5.601,274.233,0,300.481
		c-2.182,10.218-3.453,27.092-2.367,41.273c0.51,6.651,1.867,13.931,2.874,19.574c3.199,17.926,10.671,30.364,19.189,37.812
		c14.248,12.459,28.45-6.716,25.279-3.908c-13.439,11.896-25.794-0.344-32.161-18.632c-2.571-7.382-3.844-13.968-5.103-23.914
		c-5.921-46.75,5.832-84.43,23.237-92.528c2.956-1.375,6.714-2.849,10.54-2.534C40.704,257.161,38.01,255.912,36.014,255.75"/>
</g>
</svg>
