<?xml version="1.0" encoding="utf-8"?>
<!-- Generator: Adobe Illustrator 16.0.0, SVG Export Plug-In . SVG Version: 6.00 Build 0)  -->
<!DOCTYPE svg PUBLIC "-//W3C//DTD SVG 1.1//EN" "http://www.w3.org/Graphics/SVG/1.1/DTD/svg11.dtd">
<svg version="1.1" id="Layer_1" xmlns="http://www.w3.org/2000/svg" xmlns:xlink="http://www.w3.org/1999/xlink" x="0px" y="0px"
	 width="1277.257px" height="585.722px" viewBox="0 0 1277.257 585.722" enable-background="new 0 0 1277.257 585.722"
	 xml:space="preserve">
<g>
	<path d="M1135.511,505.599c0,0,29.908-9.699,41.105-19.922c46.082-39.766-1.48-82.357-4.861-86.4
		C1066.701,296.43,980.892,284.157,952.25,273.293c-152.879-47.516-310.895-68.88-317.153-69.685
		c-19.519-1.854-21.99,0.375-28.676,5.432s-17.596,13.695-21.498,16.673c-3.901,2.978-15.365,8.461-24.741,10.936
		c-9.377,2.476-163.177-2.852-167.864-3.669c-4.688-0.818-11.092-0.107-16.94-5.884c9.252,10.858,17.847,9.797,22.916,10.535
		c7.613,1.109,150.468,7.58,166.955,5.982c15.963-0.998,20.327-7.785,26.646-10.243c10.664-7.835,25.296-12.104,25.296-12.104
		s7.34-2.439,14.554-1.963c7.214,0.476,244.339,42.511,319.115,67.232c26.582,8.955,126.57,35.001,216.277,120.701
		c37.992,38.729,11.914,65.428,4.742,73.57C1164.705,488.951,1135.511,505.599,1135.511,505.599"/>
	<path d="M1223.572,486.158c1.953-1.109,20.854-10.992,33.697-20.857c46.08-39.764-1.48-82.357-4.863-86.401
		C1147.351,276.053,1061.542,263.78,1032.9,252.917c-153.988-45.861-310.895-68.879-317.152-69.684
		c-9.363-0.977-21.461,1.266-33.67,2.396c-14.092,1.886-34.547,6.375-34.547,6.375s39.045-4.463,48.943-3.734
		c8.75-2.469,178.098,26.124,336.406,70.667c29.234,9.38,108.926,23.489,216.027,123.994c39.561,36.426,17.27,69.146,10.729,75.432
		C1249.105,470.583,1221.621,487.265,1223.572,486.158"/>
	<path d="M962.529,509.376c34.666-0.361,109.168-21.545,128.061-32.281c39.482-19.357,15.438-55.775,2.088-66.139
		c-123.688-91.205-460.509-151.442-464.206-151.46c-27.126-4.85-41.433-2.137-45.497,0.722
		c-23.77,15.382-44.696,10.873-44.696,10.873l-166.771-20.915l165.03,25.615c0.038-0.619,28.525,3.938,48.765-6.868
		c11.197-4.071,13.506-4.094,41.323-0.458c11.763,0.72,311.876,48.693,461.644,148.9c14.811,11.604,32.715,40.361-0.998,57.076
		C1077.093,477.523,1052.619,493.914,962.529,509.376"/>
	<path d="M590.788,212.858c-1.516,1.477-2.652,3.129-3.685,4.185c-167.863-13.59-196.757,5.648-201.597,6.59
		c-5.225,0.573-5.881,0.137-8.004,0.23C377.504,223.864,421.341,199.482,590.788,212.858"/>
	<path d="M564.189,207.565c0,0-56.071-174.519-59.645-181.979c-10.9-21.016-22.737-20.68-22.737-20.68s-44.604-5.08-49.474-4.821
		c-23.193-1.531-30.497,18.267-30.497,18.267s-48.56,220.613-49.12,229.218c1.163,26.538,9.574,78.371,11.743,79.596
		c2.17,1.226-7.438-60.038-2.983-90.625c-0.974,6.945,44.968-207.348,48.472-213.346c3.531-6.045,5.443-14.525,22.419-13.572
		c5.315,0.841,42.03,0.349,48.282,2.183c11.286,1.075,18.18,11.057,19.911,15.932c1.733,4.875,60.066,179.12,60.066,179.12
		L564.189,207.565z"/>
	<path d="M396.756,26.446c0,0-4.834,13.142-5.888,20.789c-7.353,6.952-112.295,159.641-114.347,164.515
		s-12.457,39.435-12.457,39.435s4.894-27.074,9.465-41.129C279.123,198.187,396.756,26.446,396.756,26.446"/>
	<path d="M501.343,41.976c0.586,2.671-4.318-8.628-3.164-10.782c1.154-2.154-127.006,174.954-127.006,174.954
		S500.757,39.305,501.343,41.976"/>
	<path d="M355.371,403.777l-5.241-6.098c0,0-148.715-19.817-148.476-21.197c0.239-1.38,30.647-13.111,30.972-14.389
		c0.324-1.278-62.189,2.309-62.189,2.309c0.059-0.41-0.832,2.812-0.531,3.975c4.064-0.551,40.702-1.699,41.473-1.138
		s-16.654,8.563-16.654,8.563s-13.205,1.293-28.153,1.031c-0.952,1.709-1.974,3.385-1.239,3.598c0,0,22.04,0.047,31.423,1.271
		C206.108,382.923,355.283,403.332,355.371,403.777"/>
	<path d="M317.362,313.046c-0.763-1.105-1.928-2.256-3.518-3.039c-1.488-0.732-132.205-17.457-137.465-17.785
		c0.387,1.515,0.668,3.812,0.555,3.814C176.851,296.039,318.124,314.151,317.362,313.046"/>
	<path d="M239.652,287.429c0.364,0.657,0.196,2.497,0.196,2.497l-63.177-1.12c0,0-1.26-1.541-0.82-2.217
		C176.261,285.958,239.409,286.99,239.652,287.429"/>
	<path d="M829.632,394.175c5.398,0.9,2.078,3.203,0.191,4.582c-1.889,1.379-79.027-5.252-79.027-5.252l-1.627-4.672
		C749.169,388.833,824.234,393.276,829.632,394.175"/>
	<path d="M844.289,477.832c4.148,0.061,11.152,0.182,1.775,6.125c-3.707,1.256-97.742,0.936-99.662,1.615
		c-1.918,0.684,0.701-1.676,0.482-3.816C750.316,481.966,840.138,477.771,844.289,477.832"/>
	<path d="M1069.974,259.601c-29.422-12.875-69.943-23.608-102.984-29.141C980.464,222.444,1045.189,228.146,1069.974,259.601"/>
	<path d="M612.578,271.234c-80.371-6.279-132.885,34.659-158.893,89.967c-4.562,9.7-8.14,20.522-11.183,32.235
		c-0.818,5.317-1.636,10.64-2.455,15.956c-1.129,5.223-2.463,19.803-1.054,24.223c0.582-13.422,1.062-27.203,4.391-38.92
		c13.881-48.883,45.224-88.212,87.868-103.848c11.21-4.11,22.903-7.275,36.178-9.249c60.596-9.014,112.491,30.791,133.256,64.001
		c9.113,14.574,16.41,30.79,20.914,49.421c1.971,8.144,2.666,16.749,3.66,25.724c2.387,21.518-3.092,46.08-9.248,62.42
		c-16.867,44.766-47.092,75.215-90.131,90.238c-18.214,6.355-45.736,11.402-71.026,5.113c-10.024-2.49-19.565-4.83-28.062-8.752
		c-4.195-2.109-8.391-4.221-12.585-6.33c0.069,0.166,0.14,0.33,0.209,0.494c7.9,3.105,15.159,8.375,23.554,11.596
		c11.479,4.4,23.602,6.352,37.404,9.346c5.752,0.285,11.507,0.568,17.26,0.854c4.735-0.1,9.472-0.201,14.208-0.301
		c14.073-1.818,26.659-4.496,38.302-8.635c44.619-15.859,76.574-47.777,94.236-94.305c7.121-18.758,12.453-48.805,8.93-72.541
		c-1.926-12.967-4.332-24.966-8.293-36.117c-14.488-40.811-43.4-71.875-83.244-90.409c-8.771-4.08-18.549-6.768-28.736-9.517
		C622.887,273.01,617.731,272.123,612.578,271.234"/>
	<path d="M589.204,325.063c-54.625-4.349-88.275,23.733-105.854,61.345c-6.843,14.643-13.046,39.016-9.813,59.979
		c1.515,9.834,3.378,18.908,6.44,27.342c9.732,26.787,29.074,47.527,55.368,59.785c43.981,20.5,93.964-0.221,114.446-26.172
		c0.006-0.08,0.01-0.158,0.016-0.238c-3.9,0.992-7.002,6.949-10.205,9.213c-8.044,5.688-16.145,11.807-25.987,15.426
		c-41.7,15.338-85.065-2.627-104.604-30.439c-7.886-11.227-14.917-23.68-18.724-38.461
		c-17.891-69.479,27.707-125.637,81.652-134.783c9.159-1.555,22.091-1.057,31.406,1.51c4.012,1.217,8.022,2.434,12.034,3.648
		c0.015-0.239,0.029-0.479,0.045-0.719c-5.019-1.761-10.038-3.521-15.057-5.283C596.649,326.498,592.927,325.78,589.204,325.063"/>
	<path d="M44.738,205.607c-15.292-0.46-28.488,13.531-36.595,25.2c-3.016,4.586-6.919,10.851-6.227,11.566
		c3.796-7.26,8.099-13.756,12.653-17.676c4.125-3.716,8.455-6.726,13.408-8.896c22.611-9.906,43.106,18.245,51.718,42.832
		c3.78,10.791,6.913,22.934,9.053,37.078c0.936,6.181,1.402,12.781,1.99,19.651c1.41,16.47-0.069,35.673-2,48.57
		c-5.29,35.331-15.952,60.28-31.808,73.962c-6.71,5.791-16.958,11.023-26.635,7.41c-3.836-1.432-7.484-2.768-10.777-5.377
		c-1.632-1.422-3.262-2.844-4.892-4.266c0.03,0.125,0.061,0.248,0.09,0.371c3.051,2.008,5.909,5.715,9.148,7.787
		c4.428,2.834,9.041,3.744,14.312,5.379c2.174-0.062,4.348-0.123,6.521-0.186c1.782-0.309,3.564-0.615,5.345-0.926
		c5.259-2.088,9.936-4.766,14.224-8.523c16.431-14.404,29.466-40.461,35.013-77.189c2.237-14.807,3.96-38.203,2.069-56.328
		c-1.033-9.902-2.516-19.052-4.271-27.457c-6.429-30.753-19.953-53.409-35.402-65.75c-3.401-2.718-7.147-4.312-11.051-5.934
		C48.664,206.473,46.7,206.04,44.738,205.607"/>
	<path d="M88.589,206.333c39.39-1.295,62.521,32.127,73.764,75.105c4.376,16.731,7.935,44.247,4.844,67.358
		c-1.449,10.84-3.121,20.813-5.631,29.996c-7.973,29.166-22.625,50.984-41.958,62.912c-3.568,1.838-6.111,3.039-7.808,3.691
		c-4.057,1.322-6.967,2.117-8.922,2.457c18.451-11.789,24.483-14.746,38.453-40.168c6.076-11.979,10.887-25.418,14.162-41.615
		c15.401-76.127-16.213-141.613-54.615-155.287c-6.521-2.322-19.435-2.325-20.387-2.782
		C79.539,207.546,85.891,206.89,88.589,206.333"/>
	<path d="M36.014,255.75C18.359,254.669,5.601,274.233,0,300.481c-2.182,10.218-3.453,27.093-2.367,41.272
		c0.51,6.651,1.867,13.932,2.874,19.574c3.199,17.926,10.671,30.364,19.189,37.812c14.248,12.459,28.45-6.717,25.279-3.908
		c-13.439,11.896-25.794-0.344-32.161-18.632c-2.571-7.382-3.844-13.968-5.103-23.914c-5.921-46.75,5.832-84.43,23.237-92.528
		c2.956-1.375,6.714-2.849,10.54-2.534C40.704,257.161,38.01,255.912,36.014,255.75"/>
</g>
</svg>
