<svg xmlns="http://www.w3.org/2000/svg" width="311.968" height="64" viewBox="0 0 311.968 64"><g transform="translate(-0.002)"><path d="M71.386,47.08A108.787,108.787,0,0,1,45.753,2.31,3.086,3.086,0,0,0,42.761,0H29.505a3.138,3.138,0,0,0-2.991,2.31A108.787,108.787,0,0,1,.881,47.08a3.241,3.241,0,0,0-.469,3.79L7.04,62.418A3.142,3.142,0,0,0,10.5,63.9a107.405,107.405,0,0,1,25.633-3.139A104.471,104.471,0,0,1,61.766,63.9a3.063,3.063,0,0,0,3.461-1.48L71.855,50.87A3.264,3.264,0,0,0,71.386,47.08ZM56.722,56.792,10.09,46.784a.413.413,0,0,1-.235-.651L41.764,10.363a.386.386,0,0,1,.645.118L57.191,56.259A.43.43,0,0,1,56.722,56.792Z" transform="translate(0)" fill="#fa4616"/><g transform="translate(93.475 10.862)"><path d="M172.777,18,154.3,60.233h8.622l4.223-9.854h18.535l4.165,9.854h8.8L180.167,18ZM170.2,42.87l6.159-14.312,6.218,14.312Z" transform="translate(-154.3 -18)" fill="#005776"/><path d="M248.929,18.5H240.6V60.439h29.8V52.755H248.929Z" transform="translate(-189.98 -18.207)" fill="#005776"/><path d="M361.877,18,343.4,60.233h8.564l4.223-9.854h18.535l4.165,9.854h8.8L369.209,18ZM359.3,42.87l6.159-14.312,6.218,14.312Z" transform="translate(-232.481 -18)" fill="#005776"/><rect width="8.271" height="41.939" transform="translate(162.185 0.293)" fill="#005776"/><path d="M490,44.719c5.983-1.936,9.385-6.511,9.385-12.728,0-8.329-6.042-13.491-15.72-13.491H464.9V60.439h8.271V46.186h8.095l10.089,14.253h9.854ZM473.171,26.184h9.854c5.1,0,7.919,2.229,7.919,6.276,0,3.871-2.991,6.335-7.86,6.335h-9.913Z" transform="translate(-282.714 -18.207)" fill="#005776"/><path d="M287.1,18.5v7.977H300V60.439h8.505V26.477h12.9V18.5Z" transform="translate(-209.204 -18.207)" fill="#005776"/></g></g></svg>