<?xml version="1.0" encoding="UTF-8"?>
<!-- Generator: Adobe Illustrator 19.0.0, SVG Export Plug-In . SVG Version: 6.00 Build 0)  -->
<svg version="1.1" id="Ebene_1" xmlns="http://www.w3.org/2000/svg" xmlns:xlink="http://www.w3.org/1999/xlink" x="0px" y="0px" viewBox="0 0 141.6 31.5" style="enable-background:new 0 0 141.6 31.5;" xml:space="preserve">
<style type="text/css">
	.st0{display:none;}
	.st1{display:inline;fill:#007D32;}
	.st2{fill:#007D32;}
	.st3{fill:#F9B000;}
</style>
<g>
	<g class="st0">
		<path class="st1" d="M50.6,34.3h-1v-0.8h2.8v0.8h-1v5h-0.8V34.3z"/>
		<path class="st1" d="M53.3,33.3h0.8v2.2h0c0.1-0.1,0.2-0.3,0.3-0.4C54.6,35,54.8,35,55,35c0.6,0,1,0.6,1,1.6v2.7h-0.8v-2.6    c0-0.5-0.1-0.9-0.4-0.9c-0.2,0-0.4,0.2-0.5,0.5c0,0.1,0,0.2,0,0.3v2.7h-0.8V33.3z"/>
		<path class="st1" d="M57.8,37.4c0,0.9,0.4,1.2,0.9,1.2c0.3,0,0.5-0.1,0.7-0.1l0.1,0.7c-0.2,0.1-0.6,0.2-1,0.2    c-1,0-1.5-0.8-1.5-2.1c0-1.4,0.6-2.2,1.4-2.2c0.8,0,1.2,0.8,1.2,1.9c0,0.2,0,0.4,0,0.5H57.8z M58.9,36.7c0-0.7-0.2-1.1-0.5-1.1    c-0.4,0-0.5,0.6-0.5,1.1H58.9z"/>
		<path class="st1" d="M62.4,33.5c0.3-0.1,0.6-0.1,1-0.1c0.6,0,1,0.1,1.3,0.4c0.3,0.3,0.4,0.7,0.4,1.2c0,0.6-0.2,1-0.4,1.3    c-0.3,0.4-0.8,0.6-1.3,0.6c-0.1,0-0.2,0-0.2,0v2.3h-0.8V33.5z M63.2,36.2c0.1,0,0.1,0,0.2,0c0.6,0,0.9-0.4,0.9-1.1    c0-0.5-0.2-1-0.8-1c-0.1,0-0.2,0-0.3,0V36.2z"/>
		<path class="st1" d="M67.2,39.3c-0.8,0-1.4-0.7-1.4-2.2c0-1.5,0.7-2.2,1.4-2.2c0.8,0,1.4,0.8,1.4,2.2    C68.6,38.8,67.8,39.3,67.2,39.3L67.2,39.3z M67.2,38.6c0.4,0,0.5-0.8,0.5-1.5c0-0.6-0.1-1.5-0.5-1.5c-0.5,0-0.5,0.8-0.5,1.5    C66.7,37.9,66.8,38.6,67.2,38.6L67.2,38.6z"/>
		<path class="st1" d="M70.1,35l0.3,1.9c0.1,0.4,0.1,0.9,0.2,1.3h0c0.1-0.4,0.2-0.9,0.2-1.3l0.4-1.9h0.6l0.4,1.9    c0.1,0.5,0.2,0.9,0.2,1.3h0c0-0.4,0.1-0.9,0.2-1.3L73,35h0.8l-1,4.2h-0.7l-0.4-1.7c-0.1-0.4-0.2-0.8-0.2-1.3h0    c-0.1,0.5-0.1,0.9-0.2,1.3l-0.4,1.7h-0.7L69.2,35H70.1z"/>
		<path class="st1" d="M75.3,37.4c0,0.9,0.4,1.2,0.9,1.2c0.3,0,0.5-0.1,0.7-0.1l0.1,0.7c-0.2,0.1-0.6,0.2-1,0.2    c-1,0-1.5-0.8-1.5-2.1c0-1.4,0.6-2.2,1.4-2.2c0.8,0,1.2,0.8,1.2,1.9c0,0.2,0,0.4,0,0.5H75.3z M76.3,36.7c0-0.7-0.2-1.1-0.5-1.1    c-0.4,0-0.5,0.6-0.5,1.1H76.3z"/>
		<path class="st1" d="M78.1,36.2c0-0.4,0-0.8,0-1.2h0.7l0,0.6h0c0.2-0.4,0.5-0.7,0.8-0.7c0.1,0,0.1,0,0.2,0v0.9c-0.1,0-0.1,0-0.2,0    c-0.3,0-0.6,0.3-0.7,0.7c0,0.1,0,0.2,0,0.4v2.2h-0.8V36.2z"/>
		<path class="st1" d="M82.8,34.5c-0.2,0-0.4-0.2-0.4-0.5c0-0.3,0.2-0.5,0.5-0.5c0.3,0,0.5,0.2,0.5,0.5C83.2,34.3,83,34.5,82.8,34.5    L82.8,34.5z M82.3,39.3V35h0.8v4.2H82.3z"/>
		<path class="st1" d="M84.4,36.2c0-0.5,0-0.8,0-1.2h0.7l0,0.5h0c0.2-0.3,0.5-0.6,0.9-0.6c0.6,0,1,0.5,1,1.5v2.8h-0.8v-2.7    c0-0.4-0.1-0.8-0.5-0.8c-0.2,0-0.4,0.2-0.5,0.5c0,0.1,0,0.2,0,0.4v2.6h-0.8V36.2z"/>
		<path class="st1" d="M92.1,36.6h-1.3v1.9h1.4v0.8H90v-5.8h2.2v0.8h-1.3v1.6h1.3V36.6z"/>
		<path class="st1" d="M93.2,33.3h0.8v6h-0.8V33.3z"/>
		<path class="st1" d="M96,37.4c0,0.9,0.4,1.2,0.9,1.2c0.3,0,0.5-0.1,0.7-0.1l0.1,0.7c-0.2,0.1-0.6,0.2-1,0.2c-1,0-1.5-0.8-1.5-2.1    c0-1.4,0.6-2.2,1.4-2.2c0.8,0,1.2,0.8,1.2,1.9c0,0.2,0,0.4,0,0.5H96z M97.1,36.7c0-0.7-0.2-1.1-0.5-1.1c-0.4,0-0.5,0.6-0.5,1.1    H97.1z"/>
		<path class="st1" d="M100.9,39.2c-0.1,0.1-0.4,0.1-0.6,0.1c-0.9,0-1.5-0.7-1.5-2.1c0-1.3,0.6-2.2,1.7-2.2c0.2,0,0.5,0.1,0.6,0.1    l-0.1,0.7c-0.1,0-0.2-0.1-0.4-0.1c-0.5,0-0.8,0.6-0.8,1.4c0,0.9,0.3,1.4,0.8,1.4c0.2,0,0.3,0,0.4-0.1L100.9,39.2z"/>
		<path class="st1" d="M102.9,34v1h0.7v0.7h-0.7v2.2c0,0.5,0.2,0.6,0.4,0.6c0.1,0,0.2,0,0.3,0l0,0.7c-0.1,0-0.3,0.1-0.6,0.1    c-0.3,0-0.5-0.1-0.7-0.3c-0.2-0.2-0.3-0.5-0.3-1.1v-2.2h-0.5V35h0.5v-0.7L102.9,34z"/>
		<path class="st1" d="M104.6,36.2c0-0.4,0-0.8,0-1.2h0.7l0,0.6h0c0.2-0.4,0.5-0.7,0.8-0.7c0.1,0,0.1,0,0.2,0v0.9    c-0.1,0-0.1,0-0.2,0c-0.3,0-0.6,0.3-0.7,0.7c0,0.1,0,0.2,0,0.4v2.2h-0.8V36.2z"/>
		<path class="st1" d="M107.5,34.5c-0.2,0-0.4-0.2-0.4-0.5c0-0.3,0.2-0.5,0.5-0.5c0.3,0,0.5,0.2,0.5,0.5    C108,34.3,107.8,34.5,107.5,34.5L107.5,34.5z M107.1,39.3V35h0.8v4.2H107.1z"/>
		<path class="st1" d="M111.2,39.2c-0.1,0.1-0.4,0.1-0.6,0.1c-0.9,0-1.5-0.7-1.5-2.1c0-1.3,0.6-2.2,1.7-2.2c0.2,0,0.5,0.1,0.6,0.1    l-0.1,0.7c-0.1,0-0.2-0.1-0.4-0.1c-0.5,0-0.8,0.6-0.8,1.4c0,0.9,0.3,1.4,0.8,1.4c0.2,0,0.3,0,0.4-0.1L111.2,39.2z"/>
		<path class="st1" d="M114.5,38.3c0,0.3,0,0.7,0,1h-0.8l0-0.4h0c-0.2,0.3-0.5,0.5-0.8,0.5c-0.6,0-1-0.5-1-1.2    c0-1.1,0.8-1.5,1.7-1.5v-0.1c0-0.4-0.2-0.7-0.6-0.7c-0.3,0-0.5,0.1-0.7,0.2l-0.2-0.6c0.2-0.1,0.6-0.3,1.1-0.3c1,0,1.3,0.7,1.3,1.6    V38.3z M113.7,37.1c-0.3,0-0.9,0.1-0.9,0.8c0,0.5,0.2,0.6,0.4,0.6c0.2,0,0.4-0.2,0.5-0.5c0-0.1,0-0.1,0-0.2V37.1z"/>
		<path class="st1" d="M115.7,33.3h0.8v6h-0.8V33.3z"/>
		<path class="st1" d="M119.4,38.3c0.2,0.1,0.5,0.2,0.8,0.2c0.5,0,0.8-0.3,0.8-0.8c0-0.5-0.3-0.7-0.7-1.1c-0.6-0.4-1-1-1-1.6    c0-0.9,0.6-1.6,1.6-1.6c0.3,0,0.6,0.1,0.8,0.2l-0.2,0.8c-0.2-0.1-0.4-0.2-0.7-0.2c-0.5,0-0.7,0.4-0.7,0.7c0,0.5,0.2,0.7,0.8,1    c0.7,0.5,0.9,1,0.9,1.7c0,1-0.7,1.7-1.6,1.7c-0.4,0-0.8-0.1-1-0.2L119.4,38.3z"/>
		<path class="st1" d="M125.3,38.3c0,0.3,0,0.7,0,1h-0.8l0-0.4h0c-0.2,0.3-0.5,0.5-0.8,0.5c-0.6,0-1-0.5-1-1.2    c0-1.1,0.8-1.5,1.7-1.5v-0.1c0-0.4-0.2-0.7-0.6-0.7c-0.3,0-0.5,0.1-0.7,0.2l-0.2-0.6c0.2-0.1,0.6-0.3,1.1-0.3c1,0,1.3,0.7,1.3,1.6    V38.3z M124.5,37.1c-0.3,0-0.9,0.1-0.9,0.8c0,0.5,0.2,0.6,0.4,0.6c0.2,0,0.4-0.2,0.5-0.5c0-0.1,0-0.1,0-0.2V37.1z"/>
		<path class="st1" d="M126.7,39.3v-3.5h-0.5V35h0.5v-0.2c0-0.5,0.1-0.9,0.4-1.3c0.2-0.3,0.5-0.4,0.9-0.4c0.2,0,0.4,0,0.6,0.1    l-0.1,0.7c-0.1,0-0.2-0.1-0.3-0.1c-0.4,0-0.5,0.4-0.5,0.9V35h0.7v0.7h-0.7v3.5H126.7z"/>
		<path class="st1" d="M129.6,37.4c0,0.9,0.4,1.2,0.9,1.2c0.3,0,0.5-0.1,0.7-0.1l0.1,0.7c-0.2,0.1-0.6,0.2-1,0.2    c-1,0-1.5-0.8-1.5-2.1c0-1.4,0.6-2.2,1.4-2.2c0.8,0,1.2,0.8,1.2,1.9c0,0.2,0,0.4,0,0.5H129.6z M130.6,36.7c0-0.7-0.2-1.1-0.5-1.1    c-0.4,0-0.5,0.6-0.5,1.1H130.6z"/>
		<path class="st1" d="M133.5,34v1h0.7v0.7h-0.7v2.2c0,0.5,0.2,0.6,0.4,0.6c0.1,0,0.2,0,0.3,0l0,0.7c-0.1,0-0.3,0.1-0.6,0.1    c-0.3,0-0.5-0.1-0.7-0.3c-0.2-0.2-0.3-0.5-0.3-1.1v-2.2h-0.5V35h0.5v-0.7L133.5,34z"/>
		<path class="st1" d="M135.8,35l0.4,2.3c0.1,0.3,0.1,0.5,0.1,0.8h0c0-0.2,0.1-0.5,0.1-0.8l0.4-2.3h0.8l-0.7,3    c-0.2,0.9-0.5,1.8-0.9,2.4c-0.3,0.4-0.6,0.6-0.8,0.7l-0.3-0.8c0.2-0.1,0.4-0.2,0.5-0.4c0.2-0.2,0.3-0.4,0.3-0.6c0-0.1,0-0.1,0-0.2    c0-0.1,0-0.1,0-0.2l-1-3.9H135.8z"/>
		<path class="st1" d="M140,33.1c0.9,0,1.7,0.7,1.7,1.6c0,0.9-0.7,1.6-1.7,1.6c-1,0-1.7-0.7-1.7-1.6C138.3,33.8,139.1,33.1,140,33.1    L140,33.1z M140,33.4c-0.8,0-1.4,0.6-1.4,1.3c0,0.7,0.6,1.3,1.4,1.3c0.8,0,1.4-0.6,1.4-1.3C141.4,33.9,140.8,33.4,140,33.4    L140,33.4z M140.7,34.1c-0.1,0-0.3-0.1-0.5-0.1c-0.5,0-0.7,0.3-0.7,0.7c0,0.4,0.3,0.7,0.7,0.7c0.2,0,0.4-0.1,0.5-0.1l0.1,0.2    c-0.2,0.1-0.4,0.1-0.7,0.1c-0.6,0-1-0.4-1-0.9c0-0.6,0.5-0.9,1.1-0.9c0.3,0,0.5,0.1,0.6,0.1L140.7,34.1z"/>
	</g>
	<g>
		<g>
			<path class="st2" d="M49.5,3.7c1.3-0.3,3-0.5,4.8-0.5c2.2,0,4.3,0.4,5.8,1.7c1.2,1.1,1.7,2.6,1.7,4.4c0,2.3-1.2,4.4-3.6,5.4v0.1     c2.8,0.8,4.4,3.1,4.4,6c0,2-0.7,3.6-1.8,4.8c-1.4,1.6-3.8,2.4-7.3,2.4c-1.8,0-3.1-0.1-4.1-0.3V3.7z M53.4,13.6h1.1     c2,0,3.6-1.6,3.6-3.8c0-2-0.9-3.6-3.3-3.6c-0.6,0-1.1,0-1.4,0.1V13.6z M53.4,24.9c0.3,0.1,0.7,0.1,1.2,0.1c2.4,0,4.1-1.4,4.1-4.2     c0-2.9-2-4.3-4.2-4.3h-1.1V24.9z"/>
			<path class="st2" d="M75.7,16.7h-5.8v7.8h6.6v3.4H66V3.4H76v3.4h-6.2v6.7h5.8V16.7z"/>
			<path class="st2" d="M79.6,27.9V3.4h3.6l4.1,10.5c0.9,2.2,2.1,5.4,2.9,7.7h0.1c-0.2-3.1-0.4-6.9-0.4-11.3V3.4h3.4v24.5h-3.6     l-4.2-10.4c-0.9-2.3-2-5.2-2.7-7.8h-0.1c0.2,2.8,0.3,6.3,0.3,11.4v6.8H79.6z"/>
			<path class="st2" d="M97.6,3.7c1.1-0.3,2.7-0.5,4.4-0.5c2.8,0,4.9,0.7,6.3,2c2,1.8,3.2,5,3.2,9.9c0,5.3-1.3,8.6-3.2,10.4     c-1.6,1.7-4,2.5-7.2,2.5c-1.3,0-2.7-0.1-3.6-0.3V3.7z M101.4,24.8c0.3,0.1,0.7,0.1,0.9,0.1c2.7,0,5.1-2.3,5.1-9.7     c0-5.6-1.6-8.8-4.9-8.8c-0.4,0-0.8,0-1.1,0.1V24.8z"/>
			<path class="st2" d="M124.3,16.7h-5.8v7.8h6.6v3.4h-10.5V3.4h10.1v3.4h-6.2v6.7h5.8V16.7z"/>
			<path class="st2" d="M128.3,3.7c1.3-0.3,3.1-0.5,4.6-0.5c2.5,0,4.7,0.4,6.1,1.8c1.4,1.3,1.9,2.9,1.9,5c0,2.8-1.4,5-3.9,6.2v0.1     c1.7,0.6,2.6,2.3,3.1,5.2c0.5,3,1.1,5.6,1.5,6.4h-4c-0.3-0.7-0.8-3.1-1.2-6c-0.5-3.2-1.4-4.2-3.3-4.2h-0.9v10.2h-3.9V3.7z      M132.1,14.7h1c2.3,0,3.8-1.8,3.8-4.3c0-2.4-1-4-3.5-4.1c-0.5,0-1,0-1.3,0.1V14.7z"/>
		</g>
		<g>
			<path class="st3" d="M42,14c0,5.7-2.8,10.8-7,14h7l-3.5,3.5h-14L42,14L42,14L42,14z"/>
			<path class="st2" d="M1.8,24.5h9.9L8.2,28h14.9l-3.5,3.5H3.5C1.6,31.5,0,30,0,28V3.5C0,1.6,1.6,0,3.5,0h22.8L1.8,24.5L1.8,24.5     L1.8,24.5z"/>
			<polygon class="st3" points="27.2,14 37.1,14 26.6,24.5 16.7,24.5 20.2,21 10.3,21 31.3,0 36.2,5 27.2,14 27.2,14    "/>
		</g>
	</g>
</g>
</svg>