<?xml version="1.0" encoding="UTF-8"?>
<!-- Generator: Adobe Illustrator 25.4.1, SVG Export Plug-In . SVG Version: 6.00 Build 0)  -->
<svg version="1.1" id="Layer_1" xmlns="http://www.w3.org/2000/svg" xmlns:xlink="http://www.w3.org/1999/xlink" x="0px" y="0px" viewBox="0 0 500 98" style="enable-background:new 0 0 500 98;" xml:space="preserve">
<style type="text/css">
	.st0{fill-rule:evenodd;clip-rule:evenodd;fill:#ED1C24;}
	.st1{fill-rule:evenodd;clip-rule:evenodd;}
</style>
<path class="st0" d="M1,74.4c0,0.9-0.3,1.8,1.3,1.8h53.8c0.4-0.4,1.6-2,4.4-5.5c9.2-12.5,27.7-24.5,40.9-32.1  c8.6-5,17.1-10.9,26.1-15.4c9-4.8,18-10,27.2-14.6c-0.3,0.4-14.9,10.7-16.9,12.3c-5.5,4.1-11.1,8.5-16.2,13.1  c-7.2,6.5-24.1,22-24.1,34.3c0,2,0.4,8,3,8h36.2c0.6,0,1.3-0.6,1.3-1c0-1.7-5.8-5.4-6.1-16.3l0.1-2.6c0.7-22.2,25.2-46,31.6-52.4  c1-1.1-0.3-2.2-1.8-1.6c-1.6,0.7-24.5,10.8-27.5,12.1C98.2,30.3,26.9,61.5,24.2,62.7C9.1,69.3,1.1,72.4,1,74.4L1,74.4z"/>
<g>
	<polygon class="st1" points="248.1,77.2 264.4,77.2 297.7,3.3 281.5,3.3  "/>
	<path class="st1" d="M499,31.5c-0.1-2.6-0.5-5-3.6-7.6c-3-2.5-7.3-2.4-10.9-2.4c-5.9,0-11.4,3.3-15.4,5.3l1.7-3.9h-16.3   c-0.4,0.8-23.4,51.8-24.5,54.4h16.3c0.3-0.7,16.7-37,17.3-38.5c0.9-1.9,8.8-6.2,12.2-6.3h0.9h0.8c1.6,0,3.7,1,3.7,2.4v0.5   c0,1.9-1.9,6.1-4.1,11.3c-5.3,11.9-13,29.4-13.5,30.6h16.3c1.1-2.2,11.7-25.8,17-37.7C498,37.3,498.9,34,499,31.5L499,31.5z"/>
	<path class="st1" d="M398.6,64.7c0-6.9,7.5-12.9,14.6-12.9c2.6,0,4.7,0.4,7.2,1.1c-0.8,1.8-3.9,8.6-5,10.8s-7.7,4.4-11.2,4.4   C402,68,398.6,67.8,398.6,64.7L398.6,64.7z M396.3,36.4l4.6,2.7c4-3.4,8.4-8,17.6-8c4.5,0,8.1,1.8,7.6,6.6c-0.1,1.3-0.9,3.7-1.3,5   c-2.5-0.5-7.8-1.7-11.9-1.7c-8.4,0-16.2,4.1-21.1,7.8c-4.1,3.1-10.7,11.3-10.7,18.1c-0.1,10,6.8,11.6,14.9,11.6   c7.1,0,11.9-3.1,14.9-4.7l-1.5,3.3h15.8c1.4-3.1,7.7-17.1,9.6-21.3c2-4.3,8.2-17.5,8.3-22.5v-1.7c0-7.5-8.1-11-15.9-11   c-7,0-13.8,1.1-19.8,5.1C404.8,27.7,400.5,30.4,396.3,36.4L396.3,36.4z"/>
	<path class="st1" d="M230.3,51.7c3,0,5.2,0.1,8,1.1c-0.5,1-4.5,10.2-5.2,11.2c-1.3,2-8.4,4.2-12.1,3.9c-1.8,0-4.3-0.7-4.3-2.9   C216.7,58.2,223.5,51.7,230.3,51.7L230.3,51.7z M204.4,0.8c-16.1,0.6-30.7,7.8-42.1,19.2c-7.5,7.5-18.3,23.7-18.3,38.4v1   c0,12,9.3,19.9,21.2,19.9c8.1,0,14.5-0.6,22.3-3.6c3.4-1.4,10.6-7,11.5-7.2c0.4,9.2,8.7,10.1,15.4,10.1c6.8-0.1,12.2-3.6,14.5-4.8   l-1.6,3.5h15.6c1-2.1,10.8-24.3,12.3-27.5c2.7-6.3,6.4-12.4,5.7-19c-0.5-6.9-8.1-9.9-14.7-9.9c-5.9-0.3-14.3,0.6-21,5.2   c-2.6,1.5-8.1,5.4-10.9,10.2l4.5,2.7c2.8-2.6,9.8-8.4,18-7.9c3.5,0,7,1.5,7.4,5.1c0.1,2.8-0.7,4.5-1.3,6.6   c-3.6-0.9-7.2-1.8-10.9-1.7c-12.4-0.3-21.7,6.1-27.5,13c-5.8,7-14.1,13.8-26.6,13.8c-6.8,0-14.7-3.6-14.6-11.6   c0-14.6,8.2-27.7,19.7-36.4c7.8-6,33.3-15.4,33.8,3.5l6.6-1.6c0.7-3,1-5.6,1-8.6c-0.1-4.2-3.2-7.2-5.3-8.6   C214.7,1.6,209.5,1,204.4,0.8L204.4,0.8z"/>
	<path class="st1" d="M284.8,45.1c0,12.4,20.2,9.1,20.2,14.9c0,5.4-7.3,9.3-13.3,9.3c-3.1,0-10.9-0.7-11-5.3v-3.8l-6.3,1.1   c-0.7,1.8-1.3,3.9-1.3,7v0.3c0,6.9,8,10.6,15.3,10.6c8.9,0,16.6-1.5,23.9-7c6.4-4.7,10.6-11.3,10.6-19.3c0-11.3-19.9-9.1-19.9-13.6   c0-5.2,6.5-8.3,11.9-8.3c3.7,0,10,0,10,5.3v2c1.7-0.3,4.9-0.9,6.4-1.1c0.5-3.2,0.9-6.2,0.1-9.4c-2.9-7.1-10.8-7.1-17.1-7.1   C301.7,20.9,284.8,33.1,284.8,45.1L284.8,45.1z"/>
	<path class="st1" d="M340.5,63.3c0-0.1,7.8-17.4,8.5-19c1.5-3.1,2.6-6.7,5-8.9c2-1.6,6.3-3.9,9.7-3.9c4.6,0,7.3,1.2,7.3,6.6v0.3   c0,5.8-5.3,16.1-7.9,19.6c-3.6,4.8-8.4,10.6-16.7,10.6C343.2,68.6,340.5,66.6,340.5,63.3L340.5,63.3z M357.3,25.9l1.4-3.1h-16.2   c-11.4,24.6-32.7,72.5-33.6,74.4h16.2l10.6-23.6c3.6,5.5,8.8,5.7,14.6,5.7c17.2,0,37.8-26.5,37.8-44.1v-1c0-8.7-5.2-13.3-13.9-13.3   C367.1,20.9,362.1,23.4,357.3,25.9L357.3,25.9z"/>
</g>
</svg>