<svg width="250" height="40" viewBox="0 0 250 40" fill="none" xmlns="http://www.w3.org/2000/svg">
<path d="M0 26.7322H242.671C246.719 26.7322 250 30.0133 250 34.0608V39.2025H7.3286C3.28112 39.2025 0 35.9214 0 31.8739V26.7322Z" fill="#0270A2"/>
<path d="M18.1891 22.4726C16.4282 22.4726 14.872 22.2047 13.5204 21.6689C12.1688 21.1332 11.0314 20.3918 10.1082 19.4447C9.19441 18.488 8.49958 17.3543 8.02368 16.0437C7.54777 14.733 7.30981 13.3028 7.30981 11.7529C7.30981 10.2031 7.54777 8.77766 8.02368 7.47657C8.49958 6.16592 9.19441 5.03225 10.1082 4.07557C11.0314 3.11889 12.1688 2.37268 13.5204 1.83693C14.872 1.30119 16.4282 1.03332 18.1891 1.03332C19.9404 1.03332 21.4919 1.30119 22.8434 1.83693C24.2045 2.37268 25.342 3.11889 26.2557 4.07557C27.179 5.03225 27.8785 6.16592 28.3545 7.47657C28.8304 8.77766 29.0683 10.2031 29.0683 11.7529C29.0683 13.3028 28.8304 14.733 28.3545 16.0437C27.8785 17.3543 27.179 18.488 26.2557 19.4447C25.342 20.3918 24.2045 21.1332 22.8434 21.6689C21.4919 22.2047 19.9404 22.4726 18.1891 22.4726ZM18.1891 19.2294C19.3693 19.2294 20.3973 19.0429 21.2729 18.6698C22.1486 18.2966 22.872 17.7753 23.4431 17.1056C24.0237 16.4359 24.452 15.6466 24.728 14.7378C25.0136 13.8289 25.1564 12.834 25.1564 11.7529C25.1564 10.6815 25.0136 9.69129 24.728 8.78244C24.452 7.86403 24.0237 7.06998 23.4431 6.40031C22.872 5.73063 22.1486 5.20924 21.2729 4.83613C20.3973 4.46303 19.3693 4.27647 18.1891 4.27647C17.0088 4.27647 15.9809 4.46303 15.1052 4.83613C14.2295 5.20924 13.5014 5.73063 12.9208 6.40031C12.3497 7.06998 11.9214 7.86403 11.6358 8.78244C11.3598 9.69129 11.2218 10.6815 11.2218 11.7529C11.2218 12.834 11.3598 13.8289 11.6358 14.7378C11.9214 15.6466 12.3497 16.4359 12.9208 17.1056C13.5014 17.7753 14.2295 18.2966 15.1052 18.6698C15.9809 19.0429 17.0088 19.2294 18.1891 19.2294Z" fill="black"/>
<path d="M35.7929 22.0421H32.2093V7.37612H35.7929V9.61476C35.9452 9.15555 36.1736 8.76809 36.4782 8.45239C36.7923 8.12712 37.1349 7.86403 37.5062 7.66313C37.8869 7.46222 38.2866 7.31872 38.7054 7.23262C39.1242 7.13695 39.524 7.08912 39.9047 7.08912C40.9137 7.08912 41.8226 7.24219 42.6317 7.54832C43.4407 7.85446 44.126 8.3041 44.6876 8.89725C45.2492 9.49039 45.6822 10.2318 45.9868 11.1215C46.2914 12.0112 46.4437 13.0349 46.4437 14.1925V22.0421H42.8601V14.1925C42.8601 12.9297 42.5651 11.9299 41.9749 11.1933C41.3848 10.4566 40.5044 10.0883 39.3336 10.0883C38.1534 10.0883 37.2682 10.4566 36.6781 11.1933C36.0879 11.9299 35.7929 12.9297 35.7929 14.1925V22.0421Z" fill="black"/>
<path d="M49.8845 0.287109H53.4681V16.8186C53.4681 17.1247 53.4729 17.4117 53.4824 17.6796C53.4919 17.9475 53.5252 18.1818 53.5823 18.3827C53.6394 18.5836 53.7251 18.7463 53.8393 18.8707C53.963 18.9855 54.1344 19.0429 54.3533 19.0429H54.8244V22.0421H52.9827C52.2117 22.0421 51.6121 21.8842 51.1837 21.5685C50.7649 21.2432 50.4604 20.8319 50.27 20.3344C50.0796 19.8273 49.9654 19.2725 49.9273 18.6698C49.8988 18.0575 49.8845 17.4595 49.8845 16.876V0.287109Z" fill="black"/>
<path d="M57.994 7.37612H61.5776V22.0421H57.994V7.37612ZM57.6799 2.9993C57.6799 2.7123 57.7322 2.43964 57.8369 2.18134C57.9511 1.92304 58.1034 1.69822 58.2938 1.50688C58.4842 1.31554 58.7078 1.16726 58.9648 1.06202C59.2218 0.94722 59.4931 0.889819 59.7786 0.889819C60.0642 0.889819 60.3354 0.94722 60.5924 1.06202C60.8494 1.16726 61.0731 1.31554 61.2635 1.50688C61.4538 1.69822 61.6014 1.92304 61.7061 2.18134C61.8203 2.43964 61.8774 2.7123 61.8774 2.9993C61.8774 3.28631 61.8203 3.55896 61.7061 3.81727C61.6014 4.07557 61.4538 4.30039 61.2635 4.49173C61.0731 4.68306 60.8494 4.83613 60.5924 4.95093C60.3354 5.05617 60.0642 5.10879 59.7786 5.10879C59.4931 5.10879 59.2218 5.05617 58.9648 4.95093C58.7078 4.83613 58.4842 4.68306 58.2938 4.49173C58.1034 4.30039 57.9511 4.07557 57.8369 3.81727C57.7322 3.55896 57.6799 3.28631 57.6799 2.9993Z" fill="black"/>
<path d="M68.8875 22.0421H65.3039V7.37612H68.8875V9.61476C69.0398 9.15555 69.2682 8.76809 69.5728 8.45239C69.8869 8.12712 70.2296 7.86403 70.6008 7.66313C70.9815 7.46222 71.3813 7.31872 71.8001 7.23262C72.2189 7.13695 72.6186 7.08912 72.9994 7.08912C74.0083 7.08912 74.9173 7.24219 75.7263 7.54832C76.5353 7.85446 77.2206 8.3041 77.7822 8.89725C78.3438 9.49039 78.7769 10.2318 79.0815 11.1215C79.386 12.0112 79.5383 13.0349 79.5383 14.1925V22.0421H75.9547V14.1925C75.9547 12.9297 75.6597 11.9299 75.0695 11.1933C74.4794 10.4566 73.599 10.0883 72.4283 10.0883C71.248 10.0883 70.3628 10.4566 69.7727 11.1933C69.1826 11.9299 68.8875 12.9297 68.8875 14.1925V22.0421Z" fill="black"/>
<path d="M90.1177 19.3299C90.6698 19.3299 91.1695 19.2868 91.6169 19.2007C92.0642 19.1146 92.4735 19.0046 92.8447 18.8707C93.2159 18.7271 93.549 18.5645 93.8441 18.3827C94.1392 18.201 94.4104 18.0049 94.6579 17.7944L96.828 19.9613C95.9524 20.8319 94.953 21.4441 93.8298 21.7981C92.7162 22.1521 91.4788 22.3291 90.1177 22.3291C88.8614 22.3291 87.7525 22.1377 86.7912 21.755C85.8298 21.3628 85.0255 20.8271 84.3783 20.1478C83.7311 19.4686 83.2409 18.665 82.9077 17.737C82.5746 16.809 82.408 15.7997 82.408 14.7091C82.408 13.628 82.5746 12.6235 82.9077 11.6955C83.2409 10.7676 83.7311 9.96395 84.3783 9.2847C85.0255 8.59589 85.8298 8.06015 86.7912 7.67748C87.7525 7.28524 88.8614 7.08912 90.1177 7.08912C91.3741 7.08912 92.4925 7.28524 93.4729 7.67748C94.4628 8.06972 95.2909 8.64851 95.9571 9.41385C96.6329 10.1696 97.1279 11.112 97.442 12.2408C97.7656 13.3602 97.8941 14.6517 97.8275 16.1154H86.2772C86.2772 16.3737 86.339 16.6894 86.4628 17.0625C86.596 17.4261 86.8102 17.78 87.1053 18.1244C87.4003 18.4593 87.7906 18.7463 88.276 18.9855C88.7709 19.2151 89.3848 19.3299 90.1177 19.3299ZM93.9583 13.2884C93.9583 13.0205 93.8965 12.7048 93.7727 12.3413C93.649 11.9778 93.4396 11.6286 93.1445 11.2937C92.8495 10.9589 92.4545 10.6767 91.9595 10.4471C91.4646 10.2079 90.8506 10.0883 90.1177 10.0883C89.3848 10.0883 88.7709 10.2079 88.276 10.4471C87.781 10.6767 87.386 10.9589 87.091 11.2937C86.7959 11.6286 86.5865 11.9778 86.4628 12.3413C86.339 12.7048 86.2772 13.0205 86.2772 13.2884H93.9583Z" fill="black"/>
<path d="M112.305 16.015L118.301 1.46383H123.612V22.0421H119.757V7.49092L113.789 22.0421H110.82L104.852 7.49092V22.0421H100.997V1.46383H106.308L112.305 16.015Z" fill="black"/>
<path d="M134.463 19.3299C135.015 19.3299 135.515 19.2868 135.962 19.2007C136.409 19.1146 136.819 19.0046 137.19 18.8707C137.561 18.7271 137.894 18.5645 138.189 18.3827C138.484 18.201 138.756 18.0049 139.003 17.7944L141.173 19.9613C140.297 20.8319 139.298 21.4441 138.175 21.7981C137.061 22.1521 135.824 22.3291 134.463 22.3291C133.206 22.3291 132.098 22.1377 131.136 21.755C130.175 21.3628 129.371 20.8271 128.723 20.1478C128.076 19.4686 127.586 18.665 127.253 17.737C126.92 16.809 126.753 15.7997 126.753 14.7091C126.753 13.628 126.92 12.6235 127.253 11.6955C127.586 10.7676 128.076 9.96395 128.723 9.2847C129.371 8.59589 130.175 8.06015 131.136 7.67748C132.098 7.28524 133.206 7.08912 134.463 7.08912C135.719 7.08912 136.838 7.28524 137.818 7.67748C138.808 8.06972 139.636 8.64851 140.302 9.41385C140.978 10.1696 141.473 11.112 141.787 12.2408C142.111 13.3602 142.239 14.6517 142.173 16.1154H130.622C130.622 16.3737 130.684 16.6894 130.808 17.0625C130.941 17.4261 131.155 17.78 131.45 18.1244C131.745 18.4593 132.136 18.7463 132.621 18.9855C133.116 19.2151 133.73 19.3299 134.463 19.3299ZM138.303 13.2884C138.303 13.0205 138.242 12.7048 138.118 12.3413C137.994 11.9778 137.785 11.6286 137.49 11.2937C137.195 10.9589 136.8 10.6767 136.305 10.4471C135.81 10.2079 135.196 10.0883 134.463 10.0883C133.73 10.0883 133.116 10.2079 132.621 10.4471C132.126 10.6767 131.731 10.9589 131.436 11.2937C131.141 11.6286 130.932 11.9778 130.808 12.3413C130.684 12.7048 130.622 13.0205 130.622 13.2884H138.303Z" fill="black"/>
<path d="M143.743 7.37612H146.556V3.0854H150.139V7.37612H154.308V10.3753H150.139V15.5701C150.139 16.1345 150.158 16.6464 150.196 17.1056C150.244 17.5648 150.339 17.9618 150.482 18.2966C150.625 18.6219 150.834 18.8754 151.11 19.0572C151.386 19.239 151.762 19.3299 152.238 19.3299C152.609 19.3299 152.952 19.2964 153.266 19.2294C153.58 19.1624 153.889 19.0572 154.194 18.9137L154.993 21.6833C154.394 21.9512 153.813 22.1234 153.252 22.1999C152.69 22.286 152.162 22.3291 151.667 22.3291C150.639 22.3291 149.792 22.1808 149.126 21.8842C148.469 21.5876 147.95 21.1523 147.569 20.5783C147.189 20.0043 146.922 19.2964 146.77 18.4545C146.627 17.6126 146.556 16.6512 146.556 15.5701V10.3753H143.743V7.37612Z" fill="black"/>
<path d="M164.459 10.0883C164.069 10.0883 163.665 10.1122 163.246 10.1601C162.827 10.2079 162.408 10.2749 161.989 10.361C161.571 10.4471 161.156 10.5571 160.747 10.691C160.347 10.8154 159.971 10.9589 159.619 11.1215L158.263 8.55284C159.101 8.06493 160.062 7.70139 161.147 7.46222C162.232 7.21349 163.336 7.08912 164.459 7.08912C165.744 7.08912 166.806 7.21827 167.643 7.47657C168.481 7.72531 169.142 8.11755 169.628 8.65329C170.113 9.18903 170.451 9.87784 170.641 10.7197C170.841 11.552 170.941 12.5518 170.941 13.7189V22.0421H167.358L167.343 19.7317C166.944 20.6596 166.325 21.3245 165.487 21.7263C164.659 22.1282 163.703 22.3291 162.618 22.3291C161.828 22.3291 161.09 22.2382 160.405 22.0564C159.719 21.8746 159.124 21.5876 158.62 21.1954C158.115 20.8032 157.716 20.3009 157.421 19.6886C157.135 19.0763 156.992 18.3445 156.992 17.493C156.992 16.7468 157.126 16.0915 157.392 15.5271C157.668 14.9626 158.049 14.4795 158.534 14.0777C159.02 13.6759 159.591 13.3506 160.247 13.1019C160.904 12.8436 161.613 12.657 162.375 12.5422C163.146 12.4178 163.955 12.3556 164.802 12.3556C165.649 12.3461 166.501 12.3891 167.358 12.4848C167.358 12.0256 167.31 11.6429 167.215 11.3368C167.129 11.0306 166.972 10.7867 166.744 10.6049C166.525 10.4136 166.23 10.2797 165.858 10.2031C165.487 10.1266 165.021 10.0883 164.459 10.0883ZM160.59 17.3495C160.59 17.7322 160.662 18.0527 160.804 18.311C160.947 18.5597 161.137 18.7606 161.375 18.9137C161.613 19.0668 161.889 19.1768 162.203 19.2438C162.518 19.3012 162.846 19.3299 163.189 19.3299C163.826 19.3299 164.402 19.2438 164.916 19.0716C165.44 18.8994 165.882 18.6745 166.244 18.3971C166.615 18.1197 166.896 17.7992 167.086 17.4356C167.277 17.0721 167.367 16.6942 167.358 16.302V14.8095C167.034 14.7904 166.644 14.7761 166.187 14.7665C165.73 14.7569 165.249 14.7713 164.745 14.8095C164.24 14.8382 163.741 14.9004 163.246 14.9961C162.751 15.0918 162.303 15.24 161.904 15.4409C161.513 15.6323 161.195 15.8858 160.947 16.2015C160.709 16.5076 160.59 16.8903 160.59 17.3495Z" fill="black"/>
<path d="M174.382 0.287109H177.966V16.8186C177.966 17.1247 177.97 17.4117 177.98 17.6796C177.989 17.9475 178.023 18.1818 178.08 18.3827C178.137 18.5836 178.223 18.7463 178.337 18.8707C178.46 18.9855 178.632 19.0429 178.851 19.0429H179.322V22.0421H177.48C176.709 22.0421 176.109 21.8842 175.681 21.5685C175.262 21.2432 174.958 20.8319 174.767 20.3344C174.577 19.8273 174.463 19.2725 174.425 18.6698C174.396 18.0575 174.382 17.4595 174.382 16.876V0.287109Z" fill="black"/>
<path d="M192.343 11.1359C191.638 10.7723 190.896 10.5093 190.115 10.3466C189.344 10.1744 188.602 10.0883 187.888 10.0883C187.051 10.0883 186.437 10.1983 186.046 10.4184C185.656 10.6288 185.461 10.9637 185.461 11.4229C185.461 11.6525 185.528 11.8534 185.661 12.0256C185.804 12.1978 185.999 12.3509 186.246 12.4848C186.494 12.6092 186.794 12.724 187.146 12.8292C187.507 12.9249 187.912 13.0158 188.359 13.1019C189.34 13.2932 190.211 13.5037 190.972 13.7333C191.743 13.9533 192.39 14.2451 192.914 14.6086C193.447 14.9626 193.851 15.4027 194.127 15.9289C194.413 16.455 194.556 17.1056 194.556 17.8805C194.556 18.665 194.403 19.3394 194.099 19.9039C193.804 20.4587 193.38 20.918 192.828 21.2815C192.276 21.6355 191.605 21.8986 190.815 22.0708C190.035 22.243 189.164 22.3291 188.202 22.3291C187.517 22.3291 186.846 22.286 186.189 22.1999C185.542 22.1138 184.919 21.9942 184.319 21.8412C183.729 21.6881 183.177 21.5063 182.663 21.2958C182.158 21.0854 181.711 20.8558 181.321 20.607L182.834 18.0096C183.215 18.2105 183.624 18.3923 184.062 18.5549C184.5 18.7176 184.947 18.8563 185.404 18.9711C185.87 19.0859 186.337 19.1768 186.803 19.2438C187.279 19.3012 187.745 19.3299 188.202 19.3299C188.716 19.3299 189.149 19.2964 189.502 19.2294C189.854 19.1624 190.135 19.062 190.344 18.9281C190.563 18.7846 190.72 18.6171 190.815 18.4258C190.91 18.2249 190.958 17.9953 190.958 17.737C190.958 17.4787 190.877 17.2682 190.715 17.1056C190.563 16.9334 190.344 16.7899 190.058 16.6751C189.773 16.5603 189.43 16.4646 189.03 16.3881C188.631 16.302 188.193 16.2159 187.717 16.1298C186.679 15.9384 185.789 15.704 185.047 15.4266C184.314 15.1492 183.71 14.8239 183.234 14.4508C182.767 14.0681 182.425 13.628 182.206 13.1306C181.987 12.6331 181.878 12.0639 181.878 11.4229C181.878 10.8106 181.982 10.2414 182.192 9.71521C182.411 9.17947 182.758 8.72026 183.234 8.33759C183.71 7.94535 184.328 7.63921 185.09 7.41917C185.851 7.19914 186.784 7.08912 187.888 7.08912C189.068 7.08912 190.149 7.20392 191.129 7.43352C192.119 7.65356 193.028 8.02188 193.856 8.53849L192.343 11.1359Z" fill="black"/>
<path d="M197.226 21.0411C197.226 21.6438 197.718 22.1496 198.329 22.1496C198.939 22.1496 199.431 21.6438 199.431 21.0411C199.431 20.4384 198.939 19.9325 198.329 19.9325C197.718 19.9325 197.226 20.4384 197.226 21.0411Z" fill="black"/>
<path d="M203.077 16.6284C203.077 14.2606 204.394 12.4202 206.975 12.4202C208.763 12.4202 210.134 13.4749 210.134 13.4749L211.012 12.3556C211.012 12.3556 209.641 10.9995 206.975 10.9995C203.506 10.9995 201.364 13.3673 201.364 16.6284C201.364 19.8895 203.506 22.2573 206.975 22.2573C209.641 22.2573 211.012 20.9012 211.012 20.9012L210.134 19.7819C210.134 19.7819 208.763 20.8366 206.975 20.8366C204.394 20.8366 203.077 18.9962 203.077 16.6284Z" fill="black"/>
<path d="M218.438 10.9995C214.968 10.9995 212.827 13.3673 212.827 16.6284C212.827 19.8895 214.968 22.2573 218.438 22.2573C221.907 22.2573 224.048 19.8895 224.048 16.6284C224.048 13.3673 221.907 10.9995 218.438 10.9995ZM222.335 16.6284C222.335 18.9962 221.018 20.8366 218.438 20.8366C215.857 20.8366 214.54 18.9962 214.54 16.6284C214.54 14.2606 215.857 12.4202 218.438 12.4202C221.018 12.4202 222.335 14.2606 222.335 16.6284Z" fill="black"/>
<path d="M226.838 22.042H228.487V16.2517C228.487 14.0776 229.279 12.4202 231.196 12.4202C233.113 12.4202 233.905 14.0776 233.905 16.2517V22.042H235.554V16.2517C235.554 14.0776 236.346 12.4202 238.263 12.4202C240.18 12.4202 240.972 14.0776 240.972 16.2517V22.042H242.621V16.2517C242.621 12.8615 241.101 10.9995 238.263 10.9995C235.79 10.9995 235.019 13.2597 235.019 13.2597C234.483 12.1404 233.412 10.9995 231.196 10.9995C229.022 10.9995 228.487 12.8615 228.487 12.8615V11.2148H226.838V22.042Z" fill="black"/>
</svg>