<svg version="1.1" xmlns="http://www.w3.org/2000/svg" xmlns:xlink="http://www.w3.org/1999/xlink" x="0px" y="0px" width="192" height="61.6" viewBox="0 0 1335.219 430.063" enable-background="new 0 0 1335.219 430.063" xml:space="preserve">
      <g>
        <g>
          <g>
            <path d="M17.976,404.011H0v-86.881h17.976V404.011z"/>
            <path d="M48.198,353.994c5.732-6.123,10.815-8.598,18.106-8.598c8.721,0,15.497,3.776,18.239,10.292               c1.557,3.777,2.207,8.328,2.207,15.761v32.562H69.692v-30.87c0-8.857-3.003-12.766-9.646-12.766               c-7.417,0-11.849,4.688-11.849,12.633v31.003H31.133v-57.314h17.065V353.994z"/>
            <path d="M117.886,353.994c5.732-6.123,10.81-8.598,18.107-8.598c8.729,0,15.5,3.776,18.234,10.292               c1.567,3.777,2.222,8.328,2.222,15.761v32.562H139.38v-30.87c0-8.857-3.003-12.766-9.642-12.766               c-7.427,0-11.853,4.688-11.853,12.633v31.003h-17.06v-57.314h17.06V353.994z"/>
            <path d="M197.47,360.375c7.82,0,13.811,6.385,13.811,14.717c0,8.863-5.732,15.244-13.674,15.244               c-7.956,0-13.942-6.51-13.942-14.979S189.651,360.375,197.47,360.375z M197.607,345.396c-18.369,0-31.788,12.895-31.788,30.475               c0,16.682,13.418,29.447,30.874,29.447c19.278,0,32.434-12.25,32.434-29.961C229.127,358.291,215.452,345.396,197.607,345.396z"/>
            <path d="M271.849,404.011h-14.587l-25.923-57.314h18.633l14.974,33.351l14.982-33.351h18.106L271.849,404.011z"/>
            <path d="M333.843,360.375c8.077,0,14.721,6.514,14.721,14.46c0,8.991-6.386,15.501-15.106,15.501               c-8.34,0-14.464-6.381-14.464-14.85C318.993,366.889,325.379,360.375,333.843,360.375z M365.363,346.696h-17.062v7.298               c-5.601-5.861-11.592-8.598-18.624-8.598c-16.284,0-28.523,12.895-28.523,30.219c0,17.32,11.976,29.703,28.778,29.703               c7.171,0,12.382-2.217,18.369-8.078v6.771h17.062V346.696z"/>
            <path d="M398.975,346.696h10.162v13.808h-10.162v43.507h-17.07v-43.507h-5.725v-13.808h5.725v-17.195h17.07V346.696z"/>
            <path d="M436.225,404.011h-17.061v-57.314h17.061V404.011z M437.927,325.204c0,5.601-4.569,10.032-10.176,10.032               c-5.469,0-10.017-4.432-10.017-9.642c0-5.993,4.43-10.553,10.154-10.553C433.495,315.042,437.927,319.602,437.927,325.204z"/>
            <path d="M478.558,360.375c7.816,0,13.803,6.385,13.803,14.717c0,8.863-5.72,15.244-13.674,15.244               c-7.942,0-13.933-6.51-13.933-14.979S470.744,360.375,478.558,360.375z M478.687,345.396c-18.364,0-31.778,12.895-31.778,30.475               c0,16.682,13.414,29.447,30.874,29.447c19.266,0,32.428-12.25,32.428-29.961C510.21,358.291,496.535,345.396,478.687,345.396z"/>
            <path d="M537.565,353.994c5.725-6.123,10.807-8.598,18.102-8.598c8.734,0,15.511,3.776,18.24,10.292               c1.559,3.777,2.216,8.328,2.216,15.761v32.562h-17.071v-30.87c0-8.857-2.985-12.766-9.634-12.766               c-7.427,0-11.853,4.688-11.853,12.633v31.003H520.5v-57.314h17.065V353.994z"/>
            <path d="M655.043,362.438c7.566,0,13.527,6.207,13.527,14.153c0,8.311-5.705,14.392-13.527,14.392               c-7.821,0-13.901-6.204-13.901-14.272C641.142,368.773,647.351,362.438,655.043,362.438z M642.016,314.913h-16.262v89.098h16.262               v-6.07c5.462,5.2,10.541,7.308,17.248,7.308c15.511,0,26.308-11.542,26.308-28.161c0-16.509-11.296-28.921-26.308-28.921               c-6.949,0-12.042,2.241-17.248,7.697V314.913z"/>
            <path d="M714.101,428.834h-16.378l14.019-29.537l-23.455-49.889h18.116l13.784,31.772l14.764-31.772h15.882L714.101,428.834z"/>
            <path d="M856.524,342.007c-7.159-6.642-14.062-9.634-22.013-9.634c-15.502,0-25.787,11.197-25.787,28.131               c0,16.803,10.414,28.268,25.658,28.268c8.195,0,14.327-2.607,22.142-9.638v20.84c-8.34,3.908-14.586,5.468-23.051,5.468               c-24.626,0-43.644-19.66-43.644-45.195c0-25.01,19.408-44.553,44.03-44.553c8.078,0,13.94,1.436,22.664,5.478V342.007z"/>
            <path d="M886.354,353.21c5.734-5.339,11.464-7.813,17.845-7.813c7.945,0,14.986,4.031,18.103,10.418               c1.963,4.038,2.477,7.423,2.477,15.635v32.562h-17.066v-30.212c0-8.992-3.251-13.424-9.894-13.424               c-7.165,0-11.464,5.468-11.464,14.46v29.176h-17.064v-93.523h17.064V353.21z"/>
            <path d="M952.389,367.798c2.088-6.514,5.867-9.378,12.248-9.378c5.729,0,9.644,3.126,11.332,9.378H952.389z M993.562,378.999               c-0.132-21.097-10.818-33.603-28.663-33.603c-17.193,0-28.925,11.854-28.925,29.31c0,18.229,12.378,30.612,30.49,30.612               c11.331,0,19.665-4.827,25.917-14.859l-11.857-7.546c-4.422,6.248-8.46,8.721-14.46,8.721c-7.155,0-12.239-4.678-13.798-12.635               H993.562z"/>
            <path d="M1021.819,353.472c5.603-5.729,10.166-8.075,16.024-8.075c6.904,0,11.593,2.602,16.147,9.117               c5.867-6.643,10.561-9.117,17.464-9.117c6.768,0,13.41,3.392,16.8,8.465c2.733,4.164,3.515,8.34,3.515,17.717v32.433h-17.061               v-31.52c0-8.475-2.744-12.116-8.859-12.116c-6.381,0-9.244,4.305-9.244,13.933v29.703h-17.07v-31.003               c0-9.114-2.344-12.633-8.334-12.633c-6.516,0-9.382,4.305-9.382,13.808v29.828h-17.061v-57.314h17.061V353.472z"/>
            <path d="M1120.298,404.011h-17.064v-57.314h17.064V404.011z M1121.985,325.204c0,5.601-4.554,10.032-10.16,10.032               c-5.468,0-10.024-4.432-10.024-9.642c0-5.993,4.422-10.553,10.157-10.553C1117.558,315.042,1121.985,319.602,1121.985,325.204z"/>
            <path d="M1160.419,362.719c-1.697-3.519-3.267-4.95-5.867-4.95c-2.602,0-4.822,2.216-4.822,4.95c0,2.729,2.084,4.299,8.079,6.383               c7.038,2.348,8.469,2.989,11.202,4.952c3.771,2.736,5.991,7.158,5.991,12.368c0,11.079-8.852,18.896-21.619,18.896               c-11.332,0-17.461-4.176-21.754-14.721l13.802-4.561c2.088,4.299,4.566,6.387,7.952,6.387c2.862,0,4.821-1.826,4.821-4.561               c0-3.136-1.181-3.908-9.253-6.515c-11.076-3.78-15.634-8.857-15.634-17.332c0-10.807,8.862-18.62,21.234-18.62               c9.253,0,15.63,4.299,19.275,13.023L1160.419,362.719z"/>
            <path d="M1206.912,346.696h10.16v13.808h-10.16v43.507h-17.055v-43.507h-5.739v-13.808h5.739v-17.195h17.055V346.696z"/>
            <path d="M1263.058,364.283c-2.866-1.43-4.431-1.953-6.519-1.953c-7.808,0-12.378,6.252-12.378,16.669v25.012h-17.059v-57.314               h17.059v8.723c5.089-6.112,10.173-8.723,18.896-10.022V364.283z"/>
            <path d="M1296.666,430.063h-17.203l14.727-31.003l-24.628-52.364h19.026l14.459,33.351l15.496-33.351h16.676L1296.666,430.063z"/>
          </g>
          <g>
            <g>
              <g>
                <polygon fill="#004098" points="171.372,0 104.517,91.515 164.684,91.515 230.37,0           "/>
                <polygon fill="#004098" points="1166.89,0 1100.025,91.515 1160.213,91.515 1225.883,0           "/>
                <path fill="#004098" d="M820.718,221.711l10.855-31.806l61.136-0.015l10.856,31.821h47.613l-62.408-177.76h-54.294                   l-61.609,177.76H820.718z M862.127,100.196l18.093,52.987h-36.141L862.127,100.196z"/>
                <path fill="#004098" d="M661.897,221.691V161.74l40.857,59.951h55.811l-48.92-71.243c19.404-9.485,30.942-29.521,31.075-49.256                   c0.241-38.094-30.436-57.251-52.306-57.251l-75.033,0.005v177.745H661.897z M661.897,84.759                   c17.436-0.173,33.37,1.644,33.37,17.944c0,16.315-13.141,20.287-33.37,20.09V84.759z"/>
                <polygon fill="#004098" points="217.719,43.946 217.719,91.525 270.78,91.515 270.78,221.691 323.849,221.691 323.849,91.525                   373.983,91.525 373.983,43.941           "/>
              </g>
            </g>
            <path fill="#004098" d="M484.514,38.424c-66.608,0-99.164,42.263-99.164,94.407c0,52.163,35.635,94.427,99.164,94.427               c63.514,0,99.145-42.264,99.145-94.427C583.658,80.687,551.106,38.424,484.514,38.424z M484.503,184.778               c-26.037,0-47.75-23.254-47.75-51.947c0-28.682,20.451-51.942,47.75-51.942c27.307,0,47.761,23.26,47.761,51.942               C532.264,161.523,510.542,184.778,484.503,184.778z"/>
            <path fill="#004098" d="M484.514,38.424c-66.608,0-99.164,42.263-99.164,94.407c0,52.163,35.635,94.427,99.164,94.427               c63.514,0,99.145-42.264,99.145-94.427C583.658,80.687,551.106,38.424,484.514,38.424z M484.503,184.778               c-26.037,0-47.75-23.254-47.75-51.947c0-28.682,20.451-51.942,47.75-51.942c27.307,0,47.761,23.26,47.761,51.942               C532.264,161.523,510.542,184.778,484.503,184.778z"/>
            <polygon fill="#004098" points="1052.009,43.946 1021.396,90.873 990.734,43.946 933.862,43.946 997.619,136.882               997.619,221.701 1045.171,221.701 1045.171,136.882 1108.895,43.946       "/>
          </g>
        </g>
      </g>
    </svg>